FFmpeg version SVN-r25716, Copyright (c) 2000-2010 the FFmpeg developers  built on Nov 10 2010 12:23:18 with gcc 4.1.2 20080704 (Red Hat 4.1.2-48)  configuration: --enable-libmp3lame --enable-shared --disable-mmx --arch=x86_64  libavutil     50.33. 0 / 50.33. 0  libavcore      0.12. 1 /  0.12. 1  libavcodec    52.94. 4 / 52.94. 4  libavformat   52.84. 0 / 52.84. 0  libavdevice   52. 2. 2 / 52. 2. 2  libavfilter    1.59. 0 /  1.59. 0  libswscale     0.12. 0 /  0.12. 0[mov,mp4,m4a,3gp,3g2,mj2 @ 0x69df4c0] multiple edit list entries, a/v desync might occur, patch welcome[mov,mp4,m4a,3gp,3g2,mj2 @ 0x69df4c0] max_analyze_duration reachedSeems stream 0 codec frame rate differs from container frame rate: 600.00 (600/1) -> 30.00 (30/1)Input #0, mov,mp4,m4a,3gp,3g2,mj2, from '/RAID10/data/converted_video_files/31202.mov':  Metadata:    major_brand     : qt      minor_version   : 537199360    compatible_brands: qt    Duration: 00:00:31.33, bitrate: 1398 kb/s    Stream #0.0(eng): Video: svq1, yuv410p, 1012x120, 1395 kb/s, 30 fps, 30 tbr, 600 tbn, 600 tbc[buffer @ 0x69e1fc0] w:1012 h:120 pixfmt:yuv410p[ffsink @ 0x6a06030] auto-inserting filter 'auto-inserted scaler 0' between the filter 'src' and the filter 'out'[scale @ 0x6a06350] w:1012 h:120 fmt:yuv410p -> w:1012 h:120 fmt:yuv420p flags:0x4Output #0, flv, to '/RAID10/data/converted_video_files/31202.flv':  Metadata:    encoder         : Lavf52.84.0    Stream #0.0(eng): Video: flv, yuv420p, 1012x120, q=2-31, 600 kb/s, 1k tbn, 24 tbcStream mapping:  Stream #0.0 -> #0.0Press [q] to stop encodingframe=  111 fps=  0 q=16.9 size=     454kB time=4.62 bitrate= 804.6kbits/s dup=0 drop=28    frame=  226 fps=219 q=16.3 size=     790kB time=9.42 bitrate= 687.2kbits/s dup=0 drop=57    frame=  347 fps=226 q=14.6 size=    1157kB time=14.46 bitrate= 655.6kbits/s dup=0 drop=87    frame=  469 fps=231 q=12.5 size=    1521kB time=19.54 bitrate= 637.5kbits/s dup=0 drop=118    frame=  583 fps=230 q=15.8 size=    1863kB time=24.29 bitrate= 628.4kbits/s dup=0 drop=146    frame=  702 fps=231 q=16.2 size=    2231kB time=29.25 bitrate= 624.9kbits/s dup=0 drop=176    frame=  752 fps=230 q=16.2 Lsize=    2385kB time=31.33 bitrate= 623.6kbits/s dup=0 drop=188    video:2373kB audio:0kB global headers:0kB muxing overhead 0.503764%